<?xml version="1.0" standalone="no"?>
<!DOCTYPE svg PUBLIC "-//W3C//DTD SVG 20010904//EN"
 "http://www.w3.org/TR/2001/REC-SVG-20010904/DTD/svg10.dtd">
<svg version="1.0" xmlns="http://www.w3.org/2000/svg"
 width="100.000000pt" height="100.000000pt" viewBox="0 0 100.000000 100.000000"
 preserveAspectRatio="xMidYMid meet">
<metadata>
Created by potrace 1.16, written by Peter Selinger 2001-2019
</metadata>
<g transform="translate(0.000000,100.000000) scale(0.033333,-0.066667)"
fill="#000000" stroke="none">
<path d="M1072 1038 c-17 -17 -17 -559 0 -576 17 -17 839 -17 856 0 17 17 17
559 0 576 -17 17 -839 17 -856 0z m833 -288 l0 -265 -405 0 -405 0 -3 255 c-1
140 0 260 3 267 3 11 88 13 407 11 l403 -3 0 -265z"/>
<path d="M1460 750 c0 -82 3 -100 15 -100 10 0 15 10 15 30 0 27 3 30 29 30
42 0 61 24 61 74 0 54 -13 66 -72 66 l-48 0 0 -100z"/>
</g>
</svg>
